<svg width="56" height="37" viewBox="0 0 56 37" version="1.1" xmlns="http://www.w3.org/2000/svg" xmlns:xlink="http://www.w3.org/1999/xlink">
<title>Tao</title>
<desc>Created using Figma</desc>
<g id="Canvas" transform="translate(-21991 -4017)">
<g id="Tao">
<g id="Vector">
<use xlink:href="#path0_fill" transform="translate(22037.8 4017)" fill="#A6CE39"/>
</g>
<g id="Vector">
<use xlink:href="#path1_fill" transform="translate(21995.5 4043.75)" fill="#6D6E71"/>
</g>
<g id="Vector">
<use xlink:href="#path2_fill" transform="translate(21991 4018.9)" fill="#0095DA"/>
</g>
<g id="Vector">
<use xlink:href="#path3_fill" transform="translate(22009.1 4020.04)" fill="#0095DA"/>
</g>
<g id="Vector">
<use xlink:href="#path4_fill" transform="translate(22026.4 4019.66)" fill="#0095DA"/>
</g>
<g id="Vector">
<use xlink:href="#path0_fill" transform="translate(22037.8 4017)" fill="#A6CE39"/>
</g>
</g>
</g>
<defs>
<path id="path0_fill" fill-rule="evenodd" d="M 9.21279 0L -6.89098e-07 0C 2.529 0.758974 4.69671 2.08718 6.50314 3.98461C 7.587 5.31282 8.67086 6.83077 9.21279 8.53846L 9.21279 0Z"/>
<path id="path1_fill" fill-rule="evenodd" d="M 6.68379 1.51795L 6.86443 0.758974L 7.22571 0.758974C 7.22571 0.758974 7.22571 0.948717 7.22571 1.13846C 7.22571 1.89743 7.22571 2.27692 7.22571 2.65641C 7.22571 2.84615 7.22571 3.22564 7.22571 3.60513C 7.22571 3.79487 7.22571 3.98461 7.22571 4.17436L 6.86443 4.17436C 6.86443 3.22564 6.50314 2.27692 6.14186 1.70769C 5.78057 1.13846 5.23864 0.758974 4.51607 0.758974C 3.61286 0.758974 3.07093 1.13846 2.529 1.89744C 2.16771 2.65641 1.80643 3.79487 1.80643 5.12307C 1.80643 6.64102 1.98707 7.58974 2.529 8.34871C 2.89029 9.29743 3.61286 9.67692 4.51607 9.67692C 5.058 9.67692 5.59993 9.48717 5.96121 9.10769C 6.3225 8.7282 6.68379 8.15897 6.86443 7.4L 7.22571 7.4C 7.04507 8.34871 6.86443 9.10769 6.14186 9.48717C 5.59993 10.0564 4.87736 10.2461 3.97414 10.2461C 2.70964 10.2461 1.80643 9.86666 1.08386 8.91794C 0.361286 7.96922 0 6.83076 0 5.31282C 0 3.79487 0.361286 2.46666 1.08386 1.51795C 1.80643 0.56923 2.70964 7.23814e-07 3.97414 7.23814e-07C 4.51607 7.23814e-07 4.87736 0.189744 5.41929 0.379487C 5.96121 0.758974 6.3225 1.13846 6.68379 1.51795ZM 10.8386 2.46666L 9.75471 6.07179L 11.9224 6.07179L 10.8386 2.46666ZM 11.0192 0.189743L 11.5611 0.189743L 14.0901 8.91794C 14.0901 9.29743 14.2708 9.48717 14.4514 9.48717C 14.6321 9.48717 14.8127 9.67692 14.9934 9.67692L 14.9934 10.2461C 14.4514 10.2461 14.0901 10.2461 13.9095 10.2461C 13.7289 10.2461 13.5482 10.2461 13.3676 10.2461C 13.1869 10.2461 13.0063 10.2461 12.8256 10.2461C 12.645 10.2461 12.2837 10.2461 11.7418 10.2461L 11.7418 9.67692C 12.1031 9.67692 12.2837 9.67692 12.2837 9.48717C 12.4644 9.48717 12.4644 9.29743 12.4644 9.10769L 12.4644 8.91794L 12.4644 8.7282L 11.9224 6.64102L 9.57407 6.64102L 9.03214 8.15897C 9.03214 8.15897 9.03214 8.15897 9.03214 8.34871C 8.8515 8.7282 8.8515 8.91794 8.8515 9.10769C 8.8515 9.29743 8.8515 9.48717 9.03214 9.48717C 9.03214 9.48717 9.21279 9.67692 9.57407 9.67692L 9.57407 10.2461C 9.39343 10.2461 9.21279 10.2461 9.03214 10.2461C 8.8515 10.2461 8.67086 10.2461 8.49021 10.2461C 8.30957 10.2461 8.12893 10.2461 7.94829 10.2461C 7.76764 10.2461 7.587 10.2461 7.40636 10.2461L 7.40636 9.67692C 7.587 9.67692 7.76764 9.67692 7.94829 9.48717C 8.12893 9.48717 8.12893 9.10769 8.30957 8.91794L 11.0192 0.189743ZM 17.8836 5.31282C 18.2449 5.31282 18.4256 5.31282 18.6062 5.31282C 19.1481 5.31282 19.6901 5.12307 20.0514 4.74359C 20.4126 4.3641 20.4126 3.79487 20.4126 3.0359C 20.4126 2.27692 20.232 1.70769 20.0514 1.3282C 19.6901 0.948718 19.3288 0.758974 18.6062 0.758974L 18.4256 0.758974C 18.2449 0.758974 18.2449 0.758974 18.0643 0.758974L 18.0643 5.31282L 17.8836 5.31282ZM 15.5353 0.379487C 16.2579 0.379487 16.6191 0.379487 16.7998 0.379487C 17.1611 0.379487 17.5224 0.379487 17.8836 0.379487C 18.2449 0.379487 18.6062 0.379487 18.6062 0.379487C 19.6901 0.379487 20.5933 0.569231 21.1352 0.948718C 21.6771 1.32821 21.8578 2.08718 21.8578 3.0359C 21.8578 3.98461 21.6771 4.74359 21.1352 5.12307C 20.5933 5.50256 19.8707 5.88205 18.9675 5.88205C 18.7869 5.88205 18.7869 5.88205 18.6062 5.88205C 18.4256 5.88205 18.2449 5.88205 18.0643 5.88205L 18.0643 8.53846C 18.0643 9.10769 18.0643 9.29743 18.2449 9.48717C 18.4256 9.67692 18.6062 9.67692 19.1481 9.67692L 18.9675 9.67692L 18.9675 10.2461C 18.4256 10.2461 18.0643 10.2461 17.8836 10.2461C 17.703 10.2461 17.3417 10.2461 17.1611 10.2461C 16.9804 10.2461 16.7998 10.2461 16.6191 10.2461C 16.4385 10.2461 16.0772 10.2461 15.5353 10.2461L 15.5353 9.67692C 15.8966 9.67692 16.2579 9.67692 16.2579 9.48717C 16.4385 9.29743 16.4385 9.10769 16.4385 8.53846L 16.4385 2.08718C 16.4385 1.51795 16.4385 1.3282 16.2579 1.13846C 16.0772 0.948717 15.8966 0.948718 15.5353 0.948718L 15.5353 0.379487ZM 22.761 0.379487C 22.9416 0.379487 23.1223 0.379487 23.3029 0.379487C 23.8449 0.379487 24.2061 0.379487 24.3868 0.379487C 24.5674 0.379487 25.1094 0.379487 25.8319 0.379487C 26.0126 0.379487 26.1932 0.379487 26.1932 0.379487L 26.1932 0.948718C 25.8319 0.948718 25.4706 0.948717 25.4706 1.13846C 25.29 1.3282 25.29 1.51795 25.29 2.08718L 25.29 8.53846C 25.29 9.10769 25.29 9.29743 25.4706 9.48717C 25.6513 9.67692 25.8319 9.67692 26.1932 9.67692L 26.1932 10.2461C 25.6513 10.2461 25.29 10.2461 25.1094 10.2461C 24.9287 10.2461 24.7481 10.2461 24.5674 10.2461C 24.3868 10.2461 24.2061 10.2461 24.0255 10.2461C 23.8449 10.2461 23.4836 10.2461 22.9416 10.2461L 22.9416 9.67692C 23.3029 9.67692 23.6642 9.67692 23.6642 9.48717C 23.8449 9.29743 23.8449 9.10769 23.8449 8.53846L 23.8449 2.08718C 23.8449 1.51795 23.8449 1.3282 23.6642 1.13846C 23.4836 0.948717 23.3029 0.948718 22.9416 0.948718L 22.9416 0.379487L 22.761 0.379487ZM 27.0964 0.379487L 34.1415 0.379487L 34.3221 3.0359L 33.9609 3.0359C 33.7802 2.27692 33.7802 1.70769 33.4189 1.3282C 33.2383 0.948718 32.6964 0.948718 32.1544 0.948718L 31.2512 0.948718L 31.2512 8.53846C 31.2512 9.10769 31.2512 9.29743 31.4319 9.48717C 31.6125 9.67692 31.7931 9.67692 32.1544 9.67692L 32.3351 9.67692L 32.3351 10.2461C 31.9738 10.2461 31.6125 10.2461 31.4319 10.2461C 31.0706 10.2461 30.8899 10.2461 30.7093 10.2461C 30.5286 10.2461 30.348 10.2461 29.9867 10.2461C 29.8061 10.2461 29.2641 10.2461 28.7222 10.2461L 28.7222 9.67692L 28.9029 9.67692C 29.2641 9.67692 29.6254 9.67692 29.6254 9.48717C 29.8061 9.29743 29.8061 9.10769 29.8061 8.53846L 29.8061 0.948718L 28.9029 0.948718C 28.3609 0.948718 27.819 1.13846 27.6384 1.3282C 27.4577 1.70769 27.2771 2.08718 27.0964 3.0359L 26.7351 3.0359L 27.0964 0.379487ZM 37.0318 2.46666L 35.9479 6.07179L 38.1156 6.07179L 37.0318 2.46666ZM 37.2124 0.189743L 34.5028 8.91794C 34.3221 9.29743 34.3221 9.48717 34.1415 9.48717C 33.9609 9.48717 33.7802 9.67692 33.5996 9.67692L 33.5996 10.2461C 33.7802 10.2461 33.9609 10.2461 34.1415 10.2461C 34.3221 10.2461 34.5028 10.2461 34.6834 10.2461C 34.8641 10.2461 35.0447 10.2461 35.2254 10.2461C 35.406 10.2461 35.5866 10.2461 35.7673 10.2461L 35.7673 9.67692C 35.5866 9.67692 35.406 9.67692 35.2254 9.48717C 35.2254 9.48717 35.0447 9.29743 35.0447 9.10769C 35.0447 8.91794 35.0447 8.7282 35.2254 8.34871C 35.2254 8.34871 35.2254 8.34871 35.2254 8.15897L 35.7673 6.64102L 38.1156 6.64102L 38.6576 8.7282C 38.6576 8.7282 38.6576 8.7282 38.6576 8.91794L 38.6576 9.10769C 38.6576 9.29743 38.6576 9.48717 38.4769 9.48717C 38.2963 9.48717 38.1156 9.67692 37.935 9.67692L 37.935 10.2461C 38.4769 10.2461 38.8382 10.2461 39.0189 10.2461C 39.1995 10.2461 39.5608 10.2461 39.5608 10.2461C 39.7414 10.2461 39.9221 10.2461 40.1027 10.2461C 40.2834 10.2461 40.6446 10.2461 41.1866 10.2461L 41.1866 9.67692C 41.0059 9.67692 40.8253 9.67692 40.6446 9.48717C 40.464 9.48717 40.464 9.10769 40.2834 8.91794L 37.7544 0.189743L 37.2124 0.189743L 37.2124 0.189743ZM 41.7285 0.379487C 42.0898 0.379487 42.4511 0.379487 42.6317 0.379487C 42.993 0.379487 43.1736 0.379487 43.3543 0.379487C 43.7156 0.379487 44.2575 0.379487 44.9801 0.379487C 45.1607 0.379487 45.1607 0.379487 45.1607 0.379487L 45.1607 0.948718L 44.9801 0.948718C 44.6188 0.948718 44.2575 0.948717 44.0769 1.13846C 43.8962 1.3282 43.8962 1.51795 43.8962 2.08718L 43.8962 9.67692L 45.7026 9.67692C 46.4252 9.67692 46.9671 9.48717 47.1478 9.10769C 47.5091 8.7282 47.6897 7.96922 47.6897 7.02051L 48.051 7.02051L 47.8704 10.2461C 47.1478 10.2461 46.4252 10.2461 45.8833 10.2461C 45.3414 10.2461 44.7994 10.2461 44.6188 10.2461C 43.8962 10.2461 42.993 10.2461 41.7285 10.2461L 41.5479 10.2461L 41.5479 9.67692C 41.9091 9.67692 42.2704 9.67692 42.2704 9.48717C 42.4511 9.29743 42.4511 9.10769 42.4511 8.53846L 42.4511 2.08718C 42.4511 1.51795 42.4511 1.3282 42.2704 1.13846C 42.0898 0.948717 41.9091 0.948718 41.5479 0.948718L 41.5479 0.379487L 41.7285 0.379487Z"/>
<path id="path2_fill" fill-rule="evenodd" d="M 0.541929 0L 20.4126 0L 20.9546 6.26154L 19.8707 6.26154C 19.6901 4.3641 19.1481 3.0359 18.4256 2.27692C 17.703 1.51795 16.6191 1.3282 14.9934 1.3282L 12.4644 1.3282L 12.4644 19.7333C 12.4644 21.0615 12.645 21.8205 13.0063 22.0102C 13.3676 22.3897 14.0901 22.3897 15.174 22.3897L 15.5353 22.3897L 15.5353 23.7179C 14.6321 23.7179 13.7289 23.7179 12.8256 23.5282C 11.9224 23.5282 11.1999 23.5282 10.6579 23.5282C 10.116 23.5282 9.57407 23.5282 8.8515 23.5282C 8.12893 23.5282 7.04507 23.5282 5.59993 23.7179L 5.59993 22.3897L 5.96121 22.3897C 7.04507 22.3897 7.76764 22.2 8.12893 22.0102C 8.49021 21.6308 8.67086 20.8718 8.67086 19.7333L 8.67086 1.3282L 5.96121 1.3282C 4.33543 1.3282 3.07093 1.70769 2.34836 2.46667C 1.62579 3.0359 1.2645 4.3641 1.08386 6.26154L 0 6.26154L 0.541929 0Z"/>
<path id="path3_fill" fill-rule="evenodd" d="M 12.2837 18.0256C 11.1999 19.3538 10.2966 20.1128 9.21279 20.682C 8.12893 21.2513 6.86443 21.441 5.23864 21.441C 3.61286 21.441 2.34836 21.0615 1.44514 20.1128C 0.541929 19.1641 -3.20886e-15 18.0256 -3.20886e-15 16.5077C -3.20886e-15 14.8 0.541928 13.4718 1.62578 12.5231C 2.70964 11.5744 5.058 10.8154 8.8515 9.86666C 9.21278 9.86666 9.57407 9.67692 10.116 9.67692C 11.1999 9.48717 11.9224 9.10769 11.9224 8.53846L 11.9224 6.45128C 11.9224 4.55384 11.5611 3.22564 11.0192 2.46667C 10.4773 1.70769 9.57407 1.3282 8.12893 1.3282C 7.587 1.3282 6.86443 1.51795 6.3225 1.70769C 5.78057 1.89743 5.23864 2.27692 4.69671 2.65641C 4.69671 3.0359 4.87736 3.60513 4.87736 3.79487C 4.87736 4.17436 4.87736 4.3641 4.87736 4.74359C 4.87736 5.50256 4.69671 6.26154 4.33543 6.83077C 3.97414 7.4 3.43221 7.58974 2.70964 7.58974C 2.16771 7.58974 1.62579 7.4 1.2645 7.02051C 0.903214 6.64102 0.722571 6.07179 0.722571 5.50256C 0.722571 3.98461 1.44514 2.84615 3.07093 1.70769C 4.69671 0.56923 6.68378 4.52384e-08 8.8515 4.52384e-08C 11.3805 4.52384e-08 13.1869 0.56923 14.2708 1.70769C 15.3546 2.84615 16.0772 4.55384 16.0772 7.02051L 16.0772 7.21025L 16.0772 14.8L 16.0772 15.7487C 16.0772 17.0769 16.2579 18.0256 16.4385 18.2154C 16.6191 18.5949 17.1611 18.7846 17.703 18.7846C 18.0643 18.7846 18.4256 18.5949 18.6062 18.4051C 18.9675 18.2154 19.1481 17.8359 19.5094 17.4564L 20.4126 18.0256C 19.8707 19.1641 19.1481 19.9231 18.2449 20.4923C 17.3417 21.0615 16.4385 21.2513 15.5353 21.2513C 14.4514 21.2513 13.5482 21.0615 13.0063 20.4923C 12.8256 20.1128 12.4644 19.1641 12.2837 18.0256ZM 12.1031 10.8154C 9.03214 11.3846 7.04507 12.1436 6.14186 12.7128C 5.23864 13.4718 4.69671 14.4205 4.69671 15.7487C 4.69671 16.6974 4.87736 17.6461 5.41929 18.2154C 5.96121 18.7846 6.68378 19.1641 7.587 19.1641C 8.30957 19.1641 9.21278 18.9743 9.93536 18.4051C 10.6579 17.8359 11.3805 17.0769 12.1031 16.1282L 12.1031 10.8154Z"/>
<path id="path4_fill" fill-rule="evenodd" d="M 9.93536 1.3282C 8.30957 1.3282 7.22571 2.08718 6.3225 3.79487C 5.41929 5.50256 5.058 7.77948 5.058 10.6256C 5.058 13.6615 5.41929 15.9385 6.3225 17.4564C 7.04507 18.9743 8.30957 19.9231 9.75471 19.9231C 11.3805 19.9231 12.4644 19.1641 13.3676 17.4564C 14.2708 15.9385 14.6321 13.4718 14.6321 10.6256C 14.6321 7.58974 14.2708 5.31282 13.3676 3.79487C 12.4644 2.27692 11.3805 1.3282 9.93536 1.3282ZM 9.75471 -4.52384e-08C 12.8256 -4.52384e-08 15.174 0.948718 16.7998 2.84615C 18.6062 4.74359 19.3288 7.4 19.3288 10.8154C 19.3288 13.8513 18.4256 16.5077 16.6191 18.5949C 14.8127 20.682 12.4644 21.6308 9.75471 21.6308C 6.86443 21.6308 4.33543 20.682 2.70964 18.7846C 0.903215 16.8872 6.89098e-07 14.2308 6.89098e-07 11.0051C 6.89098e-07 7.77948 0.903215 5.12307 2.70964 3.0359C 4.69671 0.948717 7.04507 -4.52384e-08 9.75471 -4.52384e-08Z"/>
</defs>
</svg>
