<svg width="241" height="115" viewBox="0 0 241 115" version="1.1" xmlns="http://www.w3.org/2000/svg" xmlns:xlink="http://www.w3.org/1999/xlink">
<title>Tips big\</title>
<desc>Created using Figma</desc>
<g id="Canvas" transform="translate(-22612 -3589)">
<g id="Tips big\">
<g id="Vector">
<use xlink:href="#path0_fill" transform="translate(22612 3589)" fill="#0F1B46"/>
</g>
<g id="Vector">
<use xlink:href="#path1_stroke" transform="translate(22615.1 3592.25)" fill="#FFFFFF"/>
</g>
<g id="Vector">
<use xlink:href="#path2_fill" transform="translate(22765.4 3622.14)" fill="#F58220"/>
</g>
<g id="Vector">
<use xlink:href="#path2_fill" transform="translate(22765.4 3625.38)" fill="#A6CE39"/>
</g>
<g id="Vector">
<use xlink:href="#path3_fill" transform="translate(22765.4 3627.98)" fill="#0095DA"/>
</g>
<g id="Vector">
<use xlink:href="#path4_fill" transform="translate(22720.3 3622.14)" fill="#FFFFFF"/>
</g>
<g id="Vector">
<use xlink:href="#path5_fill" transform="translate(22752.2 3622.14)" fill="#FFFFFF"/>
</g>
<g id="Vector">
<use xlink:href="#path6_fill" transform="translate(22765.4 3621.49)" fill="#FFFFFF"/>
</g>
<g id="Vector">
<use xlink:href="#path7_fill" transform="translate(22805.4 3622.14)" fill="#FFFFFF"/>
</g>
<g id="Vector">
<use xlink:href="#path8_fill" transform="translate(22623.6 3601.99)" fill="#F58220"/>
</g>
<g id="Vector">
<use xlink:href="#path9_fill" transform="translate(22658.7 3619.54)" fill="#0095DA"/>
</g>
<g id="Vector">
<use xlink:href="#path10_fill" transform="translate(22639.3 3636.98)" fill="#A6CE39"/>
</g>
<g id="Vector">
<use xlink:href="#path11_fill" transform="translate(22666.5 3640.98)" fill="#F58220"/>
</g>
<g id="Vector">
<use xlink:href="#path12_fill" transform="translate(22824.2 3609.79)" fill="#FFFFFF"/>
</g>
</g>
</g>
<defs>
<path id="path0_fill" fill-rule="evenodd" d="M 10.6416 0L 20.6571 0L 220.343 0L 230.358 0C 236.618 0 241 5.19774 241 11.0452L 241 103.955C 241 110.452 235.992 115 230.358 115L 220.343 115L 21.2831 115L 10.6416 115C 5.00779 115 0 110.452 0 103.955L 0 11.0452C 0 5.19774 5.00779 0 10.6416 0Z"/>
<path id="path1_stroke" d="M 1.80692e-14 7.79661L -0.09395 7.79661L 1.80692e-14 7.79661ZM 8.13766 0.09395L 227.229 0.09395L 227.229 -0.09395L 8.13766 -0.09395L 8.13766 0.09395ZM 227.229 0.09395C 231.565 0.09395 235.272 3.3069 235.272 7.79661L 235.46 7.79661C 235.46 3.19027 231.656 -0.09395 227.229 -0.09395L 227.229 0.09395ZM 235.272 7.79661L 235.272 100.706L 235.46 100.706L 235.46 7.79661L 235.272 7.79661ZM 235.272 100.706C 235.272 105.196 231.565 108.409 227.229 108.409L 227.229 108.597C 231.656 108.597 235.46 105.313 235.46 100.706L 235.272 100.706ZM 227.229 108.409L 8.13766 108.409L 8.13766 108.597L 227.229 108.597L 227.229 108.409ZM 8.13766 108.409C 3.80106 108.409 0.09395 105.196 0.09395 100.706L -0.09395 100.706C -0.09395 105.313 3.71062 108.597 8.13766 108.597L 8.13766 108.409ZM 0.09395 100.706L 0.09395 7.79661L -0.09395 7.79661L -0.09395 100.706L 0.09395 100.706ZM 0.09395 7.79661C 0.09395 3.95168 3.80623 0.09395 8.13766 0.09395L 8.13766 -0.09395C 3.70545 -0.09395 -0.09395 3.84493 -0.09395 7.79661L 0.09395 7.79661Z"/>
<path id="path2_fill" d="M 10.0156 0L 0 0L 0 1.29944L 10.0156 1.29944L 10.0156 0Z"/>
<path id="path3_fill" d="M 10.0156 0L 0 0L 0 1.29943L 10.0156 1.29943L 10.0156 0Z"/>
<path id="path4_fill" fill-rule="evenodd" d="M -4.7758e-06 7.79661L 10.6416 7.79661L 10.6416 44.8305L 18.7792 44.8305L 18.7792 7.79661L 28.7948 7.79661L 28.7948 -6.19619e-07L -4.7758e-06 -6.19619e-07L -4.7758e-06 7.79661Z"/>
<path id="path5_fill" d="M 8.13767 0L -2.3879e-06 0L -2.3879e-06 44.8305L 8.13767 44.8305L 8.13767 0Z"/>
<path id="path6_fill" fill-rule="evenodd" d="M 10.6416 8.44633L 21.2831 8.44633C 25.039 8.44633 27.5429 10.3955 27.5429 13.6441C 27.5429 21.4407 17.5273 18.1921 10.6416 18.8418C 5.0078 19.4915 0 24.0395 0 30.5367L 0 45.4802L 7.51169 45.4802L 7.51169 31.8362C 7.51169 20.791 35.0545 35.7345 35.0545 14.2938L 35.0545 12.9943C 35.0545 5.84746 29.4208 0 23.161 0L 10.0156 0L 10.0156 8.44633L 10.6416 8.44633Z"/>
<path id="path7_fill" fill-rule="evenodd" d="M -2.3879e-06 12.3446L -2.3879e-06 12.9943C -2.3879e-06 35.7345 30.0468 19.4915 30.0468 30.5367L 30.0468 32.4859C 30.0468 35.0847 27.5429 37.0339 25.039 37.0339L 1.87793 37.0339L 1.87793 44.8305L 25.6649 44.8305C 31.9247 44.8305 37.5585 38.983 37.5585 32.4859L 37.5585 29.887C 37.5585 22.7401 31.9247 18.1921 25.039 18.1921C 17.5273 17.5424 6.25974 20.791 6.25974 12.9943C 6.25974 9.74576 8.76363 7.79661 11.8935 7.79661L 33.8026 7.79661L 33.8026 -6.19619e-07L 11.2675 -6.19619e-07C 5.0078 -6.19619e-07 -2.3879e-06 4.54802 -2.3879e-06 12.3446Z"/>
<path id="path8_fill" fill-rule="evenodd" d="M 43.4477 0C 47.2035 0 50.3334 0.649718 52.8373 7.79661C 55.3412 14.2938 55.3412 21.4407 55.9672 24.6893C 56.5932 27.2881 57.2191 29.887 60.975 30.5367C 64.7308 31.1864 70.3646 31.1864 79.1282 31.1864C 89.1438 31.1864 93.5256 36.3842 93.5256 40.2825C 93.5256 44.8305 90.3958 46.7797 81.6321 50.0282C 72.8685 53.2768 67.8607 58.4746 69.7386 66.2712C 71.6165 74.0678 74.1204 79.2655 74.1204 85.113C 74.1204 90.9604 69.7386 92.2599 67.8607 92.2599C 65.9828 92.2599 62.2269 92.2599 54.7152 84.4633C 46.5776 77.3164 45.9516 76.0169 41.5698 76.0169C 37.188 76.0169 33.4321 78.6158 27.1724 83.8136C 21.5386 89.0113 18.4087 91.6102 13.401 89.0113C 8.39316 86.4124 10.2711 80.565 11.523 77.3164C 12.149 74.0678 16.5308 66.2712 18.4087 61.7232C 20.2867 57.8249 21.5386 56.5254 17.1568 53.2768C 13.401 50.0282 4.63732 45.4802 2.7594 40.2825C -0.996449 35.7345 -2.2484 29.2373 7.76719 25.9887C 14.6529 23.3898 20.9126 24.6893 26.5464 24.0395C 31.5542 24.0395 32.1802 22.0904 32.1802 18.1921C 32.8061 14.2938 32.8061 7.79661 34.6841 5.19774C 36.562 2.59887 38.4399 0 43.4477 0ZM 40.3178 3.8983C 37.188 5.84746 36.562 10.3955 35.936 17.5424C 34.6841 24.6893 34.0581 25.339 30.9282 26.6384C 27.1724 27.9379 21.5386 27.2881 14.0269 27.9379C 6.51524 28.5876 2.7594 31.1864 2.7594 35.0847C 2.7594 38.3333 4.01134 40.2825 7.14121 43.5311C 10.2711 46.7797 12.149 46.1299 18.4087 51.3277C 24.6685 56.5254 22.7906 59.1243 20.2867 64.322C 17.1568 70.1695 14.6529 76.6667 13.401 80.565C 12.149 84.4633 12.775 87.0621 15.9048 87.0621C 19.0347 87.0621 19.0347 86.4124 22.7906 83.8136C 26.5464 81.2147 30.9282 76.0169 35.936 74.0678C 40.3178 72.1186 42.8217 72.7684 45.9516 74.7175C 49.0815 76.0169 54.0893 82.5141 59.0971 85.7627C 64.1048 89.0113 67.2347 90.3107 69.7386 88.3616C 72.2425 86.4124 70.3646 80.565 67.8607 73.4181C 65.9828 66.2712 65.3568 64.322 65.9828 58.4746C 66.6087 52.6271 74.1204 49.3785 79.1282 47.4294C 84.136 45.4802 89.7698 44.1808 89.7698 39.6328C 89.7698 35.7345 87.8919 35.0847 83.51 33.7853C 79.7542 33.1356 70.9906 33.1356 63.4789 33.1356C 55.9672 33.1356 52.8373 29.887 52.2113 23.3898C 50.9594 16.2429 50.3334 10.3955 49.0815 7.14689C 47.8295 3.24859 45.9516 1.94915 44.0737 1.94915C 44.0737 1.94915 43.4477 1.94915 40.3178 3.8983Z"/>
<path id="path9_fill" fill-rule="evenodd" d="M 10.9266 -1.23924e-06C 14.0565 -1.23924e-06 15.9344 2.59887 15.9344 3.89831C 15.9344 5.19774 15.3084 5.19774 14.0565 4.54802C 12.8045 3.89831 10.3006 3.89831 7.79671 4.54802C 4.66684 5.84746 4.04087 8.44633 4.04087 9.74576C 4.04087 11.0452 5.91879 12.3446 9.04866 12.3446C 12.8045 12.3446 13.4305 11.0452 13.4305 10.3955C 13.4305 9.74576 12.1785 9.09604 10.3006 9.09604C 9.04866 9.09604 7.79672 9.74576 7.17074 9.74576C 5.91879 10.3955 5.29282 9.74576 5.29282 8.44633C 5.29282 7.14689 7.17074 5.19774 10.3006 5.19774C 13.4305 5.19774 16.5604 6.49717 16.5604 11.0452C 16.5604 15.5932 14.0565 16.8927 9.04866 16.8927C 3.41489 17.5424 1.53697 15.5932 0.285025 10.3955C -0.966923 5.84746 2.16295 3.24859 4.66684 1.94915C 7.17074 0.649717 9.67463 -1.23924e-06 10.9266 -1.23924e-06Z"/>
<path id="path10_fill" fill-rule="evenodd" d="M 62.218 2.05171C 62.218 0.752279 60.966 0.102564 59.7141 0.102564C 58.4621 0.102564 54.0803 0.752282 42.8128 2.70143C 31.5453 4.00087 23.4076 4.00087 15.2699 3.35115C 7.75825 2.70143 2.75045 0.752281 1.4985 0.102564C -0.379418 -0.547153 -0.379417 2.05172 0.872531 3.35115C 0.872531 4.65059 4.0024 5.95002 9.63617 7.24945C 14.644 7.89917 17.1479 7.89917 26.5375 8.54889C 26.5375 10.498 26.5375 12.4472 25.9115 15.0461C 25.2855 18.2946 23.4076 22.193 20.2777 26.0913C 17.1479 30.6393 13.392 33.8879 5.25435 41.6845L 7.75825 44.9331C 7.75825 44.9331 10.8881 41.6845 17.1479 35.837C 23.4076 29.3398 24.0336 28.0404 28.4154 22.8427C 29.0414 24.1421 30.9193 27.3907 34.6751 34.5376C 39.0569 41.0348 44.6907 48.1817 44.6907 48.1817C 44.6907 48.1817 45.9427 46.8822 47.8206 45.5828C 45.3167 42.3342 37.805 31.289 34.6751 26.741C 31.5453 22.193 31.5453 18.2946 30.9193 15.0461C 30.9193 13.0969 30.9193 9.84832 30.9193 8.54889C 45.3167 8.54889 57.2102 5.95002 59.0881 5.3003C 62.218 4.00087 62.218 4.00087 62.218 2.05171Z"/>
<path id="path11_fill" fill-rule="evenodd" d="M -1.19395e-06 1.94915L 1.87792 1.29943L 2.5039 0L 3.12987 1.29943L 4.38182 1.94915L 3.12987 3.24859L 3.75585 4.54802L 2.5039 3.89831L 0.625975 5.19774L 1.25195 3.24859L -1.19395e-06 1.94915Z"/>
<path id="path12_fill" fill-rule="evenodd" d="M 3.12988 9.09604L 3.12988 1.29944L 9.5516e-06 1.29944L 9.5516e-06 3.09809e-07L 6.88571 3.09809e-07L 6.88571 1.29944L 3.75584 1.29944L 3.75584 9.09604L 3.12988 9.09604L 3.12988 9.09604ZM 8.13767 9.09604L 8.13767 3.09809e-07L 10.0156 3.09809e-07L 11.8935 6.49717C 11.8935 7.14689 12.5195 7.79661 12.5195 7.79661C 12.5195 7.14689 12.5195 7.14689 13.1455 6.49717L 15.0234 3.09809e-07L 16.2753 3.09809e-07L 16.2753 9.09604L 15.0234 9.09604L 15.0234 1.29944L 12.5195 9.09604L 11.2675 9.09604L 8.76363 1.29944L 8.76363 9.09604L 8.13767 9.09604Z"/>
</defs>
</svg>
