<svg width="161" height="29" viewBox="0 0 161 29" version="1.1" xmlns="http://www.w3.org/2000/svg" xmlns:xlink="http://www.w3.org/1999/xlink">
<title>Group 107</title>
<desc>Created using Figma</desc>
<g id="Canvas" transform="translate(-22053 -3527)">
<g id="Group 107">
<g id="Vector">
<use xlink:href="#path0_fill" transform="translate(22097.3 3527.38)" fill="#635A53"/>
</g>
<g id="Vector">
<use xlink:href="#path1_fill" transform="translate(22131.6 3527.4)" fill="#635A53"/>
</g>
<g id="Vector">
<use xlink:href="#path2_fill" transform="translate(22169.1 3527.35)" fill="#635A53"/>
</g>
<g id="Vector">
<use xlink:href="#path3_fill" transform="translate(22074.6 3527.2)" fill="#635A53"/>
</g>
<g id="Vector">
<use xlink:href="#path4_fill" transform="translate(22152.6 3527.4)" fill="#635A53"/>
</g>
<g id="Vector">
<use xlink:href="#path5_fill" transform="translate(22053 3527.4)" fill="#635A53"/>
</g>
<g id="Vector">
<use xlink:href="#path6_fill" transform="translate(22090.4 3527)" fill="#635A53"/>
</g>
<g id="Vector">
<use xlink:href="#path7_fill" transform="translate(22061.2 3527.4)" fill="#007B7A"/>
</g>
<g id="Vector">
<use xlink:href="#path8_fill" transform="translate(22176.7 3541.6)" fill="#007E7B"/>
</g>
<g id="Vector">
<use xlink:href="#path9_fill" transform="translate(22182.8 3543.6)" fill="#FFFFFF"/>
</g>
</g>
</g>
<defs>
<path id="path0_fill" fill-rule="evenodd" d="M 7.47984e-07 21.4221L 5.29415 21.4221C 5.29415 20.6221 5.88239 17.8221 6.07847 16.8221L 7.05887 11.8221C 7.25494 10.6222 7.84318 7.02218 8.23534 6.22218L 8.6275 5.82218C 8.6275 5.82218 8.6275 5.82218 8.82358 5.62219L 9.01966 5.42219C 9.80398 4.82219 13.1373 5.02219 14.1177 5.02219C 16.6668 5.02219 16.0785 6.22218 15.8824 7.22217C 15.8824 7.62217 15.6864 7.82217 15.6864 8.22217C 15.6864 8.62217 15.4903 8.82216 15.4903 9.22216L 14.902 13.0221C 14.902 13.2221 14.706 13.6221 14.706 14.0221C 14.706 14.2221 14.706 14.6221 14.5099 15.0221C 14.3138 15.6221 14.3138 16.2221 14.1177 16.8221C 14.1177 17.4221 13.9216 18.0221 13.7256 18.6221C 13.5295 19.2221 13.5295 19.8221 13.3334 20.4221C 13.1373 20.8221 13.1373 21.0221 13.1373 21.4221L 18.4315 21.4221C 18.6276 20.8221 18.8236 19.8221 18.8236 19.2221C 18.8236 18.4221 19.2158 17.8221 19.2158 17.0221C 19.2158 16.6221 19.4119 16.2221 19.4119 15.8221L 20.3923 12.4221C 20.3923 11.6221 20.7844 11.0222 20.7844 10.2222L 21.3727 7.42217C 21.7648 5.82218 22.3531 5.22219 24.1178 5.22219C 25.0982 5.22219 27.8433 5.02219 28.8237 5.42219C 30.0002 5.82218 29.2159 7.82217 29.2159 8.62217C 29.2159 9.22216 28.8237 9.82216 28.8237 10.4222L 28.6276 11.4221C 28.4315 12.0221 28.2355 12.6221 28.2355 13.2221C 28.2355 13.6221 28.2355 13.8221 28.0394 14.2221L 27.6472 16.0221C 27.2551 17.2221 27.2551 18.4221 26.8629 19.6221C 26.8629 20.0221 26.8629 20.2221 26.6668 20.6221C 26.6668 20.8221 26.4707 21.2221 26.4707 21.6221L 31.7649 21.6221L 32.157 19.8221C 32.157 19.0221 32.5492 18.4221 32.5492 17.6221C 32.5492 16.8221 32.9414 16.2221 32.9414 15.4221C 32.9414 15.2221 32.9414 15.0221 32.9414 14.8221C 33.1374 14.2221 33.1374 13.8221 33.3335 13.2221L 33.5296 11.6221C 33.5296 11.2221 33.7257 11.0222 33.7257 10.6222C 33.7257 9.82216 34.1178 9.22216 34.1178 8.42217C 34.1178 8.02217 34.3139 7.62217 34.3139 7.22217C 34.3139 6.82218 34.51 6.42218 34.51 6.22218L 34.7061 5.02219C 34.9022 3.8222 34.9022 3.0222 34.7061 2.02221C 34.7061 1.62221 34.51 1.62221 34.3139 1.42221C 34.1178 1.22221 33.9218 0.822217 33.5296 0.822217C 31.5688 0.0222221 28.0394 0.222221 25.8825 0.222221C 24.5099 0.222221 23.5295 0.822217 22.5491 1.42221C 22.3531 1.62221 21.9609 2.02221 21.7648 2.62221L 21.5687 2.62221C 21.5687 2.22221 21.5687 1.82221 21.3727 1.62221L 21.1766 1.42221C 20.9805 1.02222 20.5884 0.822217 20.0001 0.622218C 18.6276 -0.177777 14.706 0.0222221 12.9413 0.0222221C 11.9609 0.0222221 11.1765 0.422219 10.5883 0.822217C 10.3922 1.02222 10.3922 1.02222 10.1961 1.22221L 9.41182 2.02221C 9.21574 2.22221 9.21574 2.42221 9.01966 2.42221C 9.01966 1.62221 9.41182 0.822217 9.41182 0.0222221L 4.11767 0.0222221C 4.11767 0.422219 3.92159 1.02222 3.92159 1.22221C 3.72551 1.62221 3.72551 2.22221 3.72551 2.62221C 3.72551 3.0222 3.52943 3.4222 3.52943 4.0222C 3.33335 4.62219 3.33335 5.42219 3.13727 6.02218C 2.74512 6.42218 2.74511 7.02218 2.74511 7.42217C 2.74511 7.62217 2.74511 7.82217 2.54903 8.02217C 2.54903 8.22217 2.54903 8.42217 2.35295 8.62217C 2.35295 8.82217 2.35295 9.02216 2.35295 9.42216L 1.56864 13.4221C 1.56864 13.6221 1.56864 13.8221 1.56864 14.0221C 1.37256 14.6221 1.17648 15.4221 1.17648 16.0221C 1.17648 16.8221 0.980398 17.2221 0.784318 18.0221C 0.784318 18.2221 0.784318 18.4221 0.784318 18.8221C 0.392159 19.6221 7.47984e-07 20.4221 7.47984e-07 21.4221Z"/>
<path id="path1_fill" fill-rule="evenodd" d="M -2.99194e-06 18.1999C -2.99194e-06 18.5999 1.49012e-06 18.9999 0.196081 19.3999C 0.392161 19.9999 0.392162 19.9999 0.588242 20.1999C 0.784321 20.3999 0.588236 20.3999 0.980395 20.5999C 1.17647 20.5999 1.17648 20.7999 1.37256 20.7999C 1.76471 20.9999 1.96079 20.9999 2.35295 21.1999C 3.92159 21.3999 5.68631 21.3999 7.45103 21.3999C 10.9805 21.3999 14.706 21.3999 18.2354 21.3999L 18.8236 18.1999C 18.8236 17.9999 18.8236 17.7999 18.8236 17.5999C 18.8236 17.3999 19.0197 16.7999 19.0197 16.3999L 7.25494 16.3999C 4.90199 16.3999 5.49023 14.7999 5.68631 13.5999C 5.68631 12.7999 5.88238 12.7999 5.88238 11.9999C 6.07846 11.3999 6.07847 10.9999 6.07847 10.3999C 6.27455 9.79994 6.27455 9.39994 6.47063 8.99994C 6.47063 8.79994 6.47063 8.59994 6.47063 8.19995L 6.86278 6.79996C 7.05886 6.19996 7.45102 5.59996 8.23534 5.39996C 9.21574 4.99997 13.1373 5.19997 14.5099 5.19997C 15.0981 5.19997 15.4903 5.39996 15.8824 5.59996C 16.2746 5.79996 16.6668 6.39996 16.6668 6.59996C 16.6668 7.19995 16.4707 7.59995 16.4707 8.19995L 9.21574 8.19995C 9.21574 8.59994 9.01966 8.99994 9.01966 9.39994C 8.82358 10.3999 8.6275 11.3999 8.6275 11.9999C 8.6275 12.7999 8.43142 12.7999 8.43142 13.3999L 20.7844 13.3999C 21.1766 13.3999 20.9805 13.1999 21.1766 12.3999L 21.5687 10.1999C 21.5687 9.79994 21.7648 9.39994 21.7648 9.19994C 21.7648 8.79994 21.9609 8.59994 21.9609 8.19995C 21.9609 7.79995 22.157 7.59995 22.157 7.19995C 22.157 6.99995 22.157 6.79995 22.3531 6.59996C 22.3531 6.39996 22.3531 6.19996 22.3531 5.99996C 22.5491 4.99997 22.7452 3.79997 22.5491 2.59998C 22.5491 2.39998 22.3531 1.79999 22.157 1.59999C 21.5688 0.199999 19.0197 0 17.4511 0L 9.6079 0C 8.23534 0 6.86278 0.199999 5.68631 0.799995C 5.68631 0.799995 5.49023 0.999993 5.29415 0.999993L 4.70591 1.39999C 3.92159 1.79999 4.31375 1.79999 3.72551 2.39998L 3.13727 3.19998C 2.74512 3.59998 2.35296 5.19997 2.15688 5.79996L 1.56864 9.39994C 1.37256 10.3999 1.17647 11.3999 0.980395 12.3999C 0.980395 12.5999 0.784318 12.7999 0.784318 12.9999C 0.784318 13.1999 0.784318 13.5999 0.784318 13.7999C 0.784318 14.3999 0.588237 14.7999 0.392158 15.1999C 0.392158 15.7999 -2.99194e-06 17.5999 -2.99194e-06 18.1999Z"/>
<path id="path2_fill" fill-rule="evenodd" d="M 1.49597e-06 18.0499C 1.49597e-06 19.0499 0 19.4499 0.588239 20.4499C 1.17648 21.2499 3.52943 21.6499 4.50983 21.6499L 6.86279 21.6499C 7.45103 21.6499 7.45103 20.6499 7.84318 19.6499C 8.03926 19.2499 8.03927 19.2499 8.23535 19.0499C 8.43143 18.6499 8.82358 18.2499 9.21574 17.8499L 10.5883 17.0499C 10.7844 16.8499 11.1765 16.8499 11.1765 16.6499C 10.1961 16.6499 9.01966 16.6499 8.03926 16.6499C 6.07847 16.6499 5.68631 16.2499 6.07847 14.6499C 6.07847 14.4499 6.07847 14.0499 6.07847 13.8499C 6.07847 13.2499 6.27455 12.8499 6.47063 12.4499C 6.47063 12.2499 6.47063 12.0499 6.47063 11.6499C 6.47063 11.0499 6.86279 10.0499 6.86279 9.44994C 6.86279 8.84994 7.25494 7.04995 7.45102 6.64996C 8.03926 5.84996 8.43142 5.64996 9.80397 5.64996C 11.1765 5.64996 15.6864 5.44996 16.4707 5.84996C 17.0589 5.64996 17.255 5.84996 17.255 6.24996C 17.4511 7.04995 17.0589 8.44994 16.8629 9.24994C 16.8629 9.64994 16.6668 10.2499 16.4707 11.0499C 16.2746 11.8499 16.4707 11.8499 16.2746 12.2499C 16.2746 12.6499 16.0785 13.0499 16.0785 13.4499L 21.3727 13.4499C 21.3727 13.2499 21.5687 12.6499 21.5687 12.4499L 22.157 9.24994C 22.157 8.84994 22.3531 8.64994 22.3531 8.24994C 22.3531 8.04995 22.3531 8.04995 22.5491 7.84995C 22.5491 7.64995 22.5491 7.44995 22.5491 7.24995C 22.5491 6.44996 22.9413 5.84996 22.9413 5.04997C 22.9413 3.84997 23.3335 2.04999 22.157 1.04999C 21.5688 0.649996 21.1766 0.449997 20.3923 0.249998C 18.8236 -0.149999 10.5883 0.0499997 8.6275 0.0499997C 7.45102 0.0499997 5.29415 0.249998 4.31375 1.04999L 3.92159 1.24999C 3.33335 1.64999 2.74511 2.64998 2.54903 3.24998L 2.15687 4.44997C 1.76471 5.64996 1.56864 7.24995 1.17648 8.64994C 1.17648 8.84994 1.17648 9.04994 1.17648 9.44994C 0.980396 10.2499 0.980395 10.4499 0.784315 11.4499C 0.784315 12.0499 0.392162 13.0499 0.392162 13.6499C 0.196083 14.6499 0.196081 15.0499 1.49597e-06 15.6499L 1.49597e-06 18.0499Z"/>
<path id="path3_fill" fill-rule="evenodd" d="M 0 21.3999L 0 21.5999L 5.29415 21.5999C 5.29415 21.1999 5.68631 19.9999 5.68631 19.3999L 6.07847 18.1999C 6.07847 17.7999 6.27455 17.3999 6.27455 16.9999L 7.6471 10.1999C 7.84318 9.39994 7.84318 8.99994 8.03926 7.99995C 8.03926 7.79995 8.03926 7.59995 8.03926 7.39995C 8.43142 5.79996 9.21574 5.19997 10.7844 5.19997L 17.6472 5.19997C 17.6472 4.59997 18.6276 0.999993 18.6276 -2.98021e-09L 12.9413 -2.98021e-09C 11.7648 -2.98021e-09 10.9805 0.399997 10.1961 1.19999C 10.1961 1.19999 10.1961 1.19999 10.0001 1.19999C 9.80398 1.39999 9.80398 1.39999 9.6079 1.59999C 9.41182 2.19999 9.41182 2.19999 9.21574 2.39998C 9.01966 2.59998 9.01966 2.79998 8.82358 2.79998C 9.01966 2.19999 9.21574 0.799995 9.21574 0.199999L 3.92159 0.199999C 3.92159 0.799995 3.72551 0.999993 3.72551 1.59999C 3.52943 2.39998 3.52943 2.59998 3.52943 2.99998L 3.13727 4.79997C 3.13727 4.99997 3.13727 5.39996 3.13727 5.59996C 3.13727 5.99996 2.94119 6.39996 2.94119 6.79995C 2.94119 7.19995 2.74511 7.59995 2.74511 8.19995C 2.74511 8.59994 2.54903 8.99994 2.54903 9.39994L 1.9608 10.7999C 1.9608 11.3999 1.76472 11.5999 1.76472 12.1999L 0.980398 16.1999C 0.784318 16.5999 0.980397 16.9999 0.784317 17.5999L 0 21.3999Z"/>
<path id="path4_fill" fill-rule="evenodd" d="M -1.49597e-06 21.3999L 5.29415 21.3999L 5.88239 18.3999C 6.27454 17.3999 6.27454 16.7999 6.47062 15.3999L 7.05887 12.3999C 7.05887 11.7999 7.84318 8.59994 7.84318 7.79995C 7.84318 6.99995 8.23534 5.79996 9.01966 5.39996C 9.41182 5.19997 10.0001 5.19997 10.5883 5.19997C 12.9413 5.19997 15.2942 5.19997 17.6472 5.19997L 18.6276 0C 17.4511 0 13.5295 0 12.5491 0C 11.5687 0 10.9805 0.399997 10.3922 0.999993C 9.21574 1.79999 9.21574 2.39998 9.01966 2.59998C 9.01966 2.19999 9.21574 1.79999 9.21574 1.39999C 9.21574 1.19999 9.21574 0.999993 9.21574 0.799995C 9.21574 0.599996 9.41182 0.399997 9.41182 0.199999L 4.11767 0.199999C 4.11767 0.999993 3.72551 2.39998 3.52943 3.59998C 3.52943 4.19997 3.13728 4.79997 3.13728 5.59996C 3.13728 6.19996 2.74512 7.19995 2.74512 7.59995L 2.15688 10.9999C 2.15688 11.3999 1.96079 11.9999 1.96079 12.3999C 1.76471 13.3999 1.56863 14.3999 1.56863 14.9999C 1.56863 15.3999 0.784315 19.1999 0.588236 19.5999C 0.588236 19.7999 0.588239 20.1999 0.392159 20.3999C 0.19608 20.5999 0.196078 20.9999 -1.49597e-06 21.3999Z"/>
<path id="path5_fill" fill-rule="evenodd" d="M 0 28.5998L 5.29415 28.5998C 5.29415 28.3998 5.29415 27.9998 5.49023 27.5998C 5.49023 27.1998 5.68631 26.9998 5.68631 26.7998C 5.68631 26.3998 5.88239 26.1998 5.88239 25.9998C 5.88239 25.5998 5.88239 25.3998 6.07847 24.9998C 6.07847 24.5998 6.27455 24.3998 6.27455 24.1998C 6.27455 23.7998 6.27455 23.5998 6.47063 23.1998C 6.66671 22.5998 6.66671 21.9999 6.86279 21.3999L 7.25495 19.5999C 7.25495 19.1999 7.45103 19.1999 7.45103 18.7999L 8.23534 14.1999C 8.23534 13.7999 8.23534 13.5999 8.43142 13.3999C 8.6275 12.5999 8.6275 12.5999 8.82358 11.5999C 8.82358 11.3999 9.01966 10.9999 9.01966 10.7999L 9.21574 7.99995C 9.21574 7.59995 9.21574 7.39995 9.41182 6.99995C 9.6079 6.59996 9.80398 5.99996 9.80398 5.39996L 10.1961 2.59998C 10.1961 2.19999 10.3922 1.99999 10.3922 1.59999C 10.5883 1.19999 10.7844 0.599996 10.7844 0L 5.29415 0L 4.90199 1.59999C 4.90199 1.99999 4.90199 2.19999 4.70591 2.59998L 4.50983 4.39997C 4.50983 4.79997 4.50983 4.99997 4.31375 5.19997C 4.31375 5.59996 4.11767 5.79996 4.11767 5.99996C 4.11767 6.39996 4.11767 6.59996 3.92159 6.99995C 3.92159 7.59995 3.72551 8.19995 3.72551 8.79994L 2.94119 12.3999C 2.74511 13.3999 2.94119 13.5999 2.74511 14.1999C 2.35296 15.1999 2.35296 15.9999 2.15688 16.7999C 2.15688 17.1999 1.9608 17.3999 1.9608 17.7999C 1.9608 17.9999 1.9608 18.3999 1.9608 18.5999L 1.56864 20.3999C 1.56864 20.5999 1.56864 20.9999 1.37256 21.3999C 1.17648 21.9999 1.17648 22.3999 0.980398 23.1998L 0.19608 27.5998C 0.19608 27.9998 0 28.1998 0 28.5998Z"/>
<path id="path6_fill" fill-rule="evenodd" d="M 7.47984e-07 21.7999L 5.29415 21.7999C 5.49023 20.5999 5.49023 19.9999 5.88239 19.1999C 6.07847 18.5999 6.07847 17.9999 6.07847 17.7999L 6.47063 15.7999C 6.47063 14.7999 6.86279 14.3999 6.86279 13.7999L 7.25494 12.3999C 7.25494 11.9999 7.45102 11.3999 7.45102 10.9999C 7.45102 10.3999 7.6471 9.59994 7.84318 8.99994C 7.84318 8.79994 7.84318 8.39994 7.84318 8.19995C 7.84318 7.79995 8.03926 7.39995 8.03926 6.79996C 8.03926 6.39996 8.23534 5.99996 8.23534 5.39996C 8.23534 4.99997 8.43142 4.59997 8.43142 3.99997L 9.21574 -5.96043e-09L 3.92159 -5.96043e-09C 3.92159 0.199999 3.92159 0.399997 3.72551 0.599996L 1.76472 10.5999C 1.76472 10.9999 1.37256 12.1999 1.37256 12.5999L 1.17648 16.3999C 0.980399 17.3999 0.784318 18.1999 0.588238 18.9999L 7.47984e-07 21.7999Z"/>
<path id="path7_fill" fill-rule="evenodd" d="M 3.72551 0.399997C 3.72551 1.39999 3.33335 1.99999 3.33335 2.79998L 3.13727 3.99997C 3.13727 4.39997 2.94119 4.79997 2.94119 5.19997C 4.11767 5.19997 8.6275 4.99997 9.41182 5.59996C 10.1961 5.99996 9.6079 7.79995 9.41182 8.79994C 9.41182 9.39994 9.21574 10.1999 9.01966 10.9999C 9.01966 11.3999 9.01966 11.7999 8.82358 12.3999C 8.82358 12.5999 8.6275 12.7999 8.6275 12.9999C 8.6275 13.1999 8.6275 13.3999 8.43142 13.7999C 8.43142 13.9999 8.23534 14.1999 8.23534 14.3999C 8.23534 14.9999 8.23534 15.3999 7.84318 15.5999C 6.6667 16.5999 2.74511 16.1999 0.784318 16.1999C 0.784318 17.1999 0.392159 18.1999 0.392159 18.9999C 0.19608 19.7999 -3.73992e-07 20.7999 -3.73992e-07 21.3999C 1.9608 21.3999 7.84318 21.5999 9.41182 21.1999C 9.80398 20.9999 10.9805 20.7999 11.3726 20.3999L 11.9609 19.9999C 11.9609 19.9999 11.9609 19.9999 12.1569 19.7999C 12.353 19.5999 12.353 19.3999 12.5491 19.1999C 12.7452 18.9999 12.7452 18.7999 12.9413 18.3999C 13.1373 18.1999 13.3334 17.5999 13.5295 16.9999L 13.9216 14.9999C 14.1177 13.9999 14.1177 13.1999 14.5099 12.1999C 14.5099 11.7999 14.706 11.5999 14.5099 11.1999C 14.706 10.9999 14.706 10.9999 14.706 10.5999C 14.902 9.59994 15.0981 8.39994 15.2942 7.39995C 15.6864 6.19996 16.0785 2.79998 15.6864 1.79999C 15.4903 0.999993 15.0981 0.599996 14.5099 0.399997C 14.3138 0.399997 14.3138 0.399997 14.3138 0.199999L 11.5687 0L 3.92159 0C 3.72551 0.199999 3.72551 0.199999 3.72551 0.399997Z"/>
<path id="path8_fill" fill-rule="evenodd" d="M 3.13727 2.99998C 1.37255 4.19997 0.196077 5.99996 -2.99194e-06 8.19995L 33.1374 8.19995L 33.9218 6.19996L 35.8826 1.19999C 36.2747 0.599996 36.0786 0.799995 36.0786 0.399998C 36.0786 0.199999 36.2747 0.199998 36.2747 -1.90734e-07C 27.8433 -1.90734e-07 19.4119 -1.90734e-07 10.9804 -1.90734e-07C 10.1961 -1.90734e-07 9.60789 -1.90734e-07 8.82358 -1.90734e-07C 8.43142 -1.90734e-07 8.43142 0.199999 7.6471 0.599996C 6.27455 1.39999 4.50982 2.19999 3.13727 2.99998Z"/>
<path id="path9_fill" fill-rule="evenodd" d="M 4.11768 0.799995C 4.11768 0.999993 4.11768 0.999994 4.11768 0.999994C 4.11768 0.999994 4.11767 0.999994 3.92159 0.999994L 3.72551 0.799995C 3.72551 0.799995 3.52944 0.599995 3.33336 0.599995C 3.13728 0.599995 2.94119 0.599995 2.74511 0.599995C 2.54903 0.599995 2.15687 0.599996 1.96079 0.799995C 1.76471 0.999993 1.56864 0.999993 1.37256 1.19999C 1.17648 1.39999 1.17647 1.59999 0.980392 1.79999C 0.980392 1.99999 0.784315 2.39998 0.784315 2.59998C 0.784315 2.99998 0.784312 3.19998 0.980392 3.39998C 0.980392 3.59998 1.17648 3.79998 1.37256 3.99997C 1.56864 4.19997 1.76471 4.19997 1.96079 4.39997C 2.15687 4.39997 2.35295 4.59997 2.74511 4.59997C 2.94119 4.59997 3.13728 4.59997 3.13728 4.59997C 3.33336 4.59997 3.52943 4.59997 3.52943 4.39997L 3.52943 2.79998L 2.35296 2.79998L 2.35296 2.59998C 2.35296 2.59998 2.35296 2.59998 2.35296 2.39998L 3.92159 2.39998C 3.92159 2.39998 3.92159 2.39998 3.92159 2.59998L 3.92159 4.59997L 3.92159 4.79997C 3.92159 4.79997 3.92159 4.79997 3.72551 4.99997C 3.72551 4.99997 3.52943 4.99997 3.52943 5.19997C 3.33335 5.19997 3.33336 5.19997 3.13728 5.39996C 2.9412 5.39996 2.94119 5.39996 2.74511 5.39996C 2.54903 5.39996 2.54904 5.39996 2.35296 5.39996C 1.9608 5.39996 1.56864 5.39996 1.37256 5.19997C 0.980401 4.99997 0.784318 4.99997 0.588239 4.59997C 0.392159 4.39997 0.196086 4.19997 0.196086 3.79997C 5.97511e-06 3.39998 -5.98387e-06 3.19998 -5.98387e-06 2.79998C -5.98387e-06 2.39998 5.97511e-06 1.99999 0.196086 1.79999C 0.392165 1.39999 0.392156 1.19999 0.784315 0.999994C 0.980395 0.799995 1.17648 0.599996 1.56864 0.399998C 1.9608 0.199999 2.15688 0.199998 2.54903 0.199998C 2.74511 0.199998 2.9412 0.199998 3.13728 0.199998C 3.33336 0.199998 3.52943 0.199999 3.52943 0.399998C 3.72551 0.399998 3.72551 0.399997 3.92159 0.599995C 3.92159 0.599995 4.11768 0.599996 4.11768 0.799995C 4.11768 0.599996 3.9216 0.399997 4.11768 0.799995C 4.11768 0.599996 4.11768 0.599996 4.11768 0.799995ZM 8.03927 4.79997C 8.03927 4.99997 8.03927 4.99997 8.03927 4.99997L 5.88238 4.99997L 5.68631 4.99997L 5.68631 4.79997L 5.68631 0.199998C 5.68631 0.199998 5.6863 0.199998 5.88238 0.199998C 5.88238 0.199998 5.88239 0.199998 6.07847 0.199998L 6.27455 0.199998C 6.27455 0.199998 6.27455 0.199998 6.47063 0.199998L 6.47063 4.59997L 8.23535 4.59997C 8.03927 4.59997 8.03927 4.59997 8.03927 4.79997C 8.03927 4.59997 8.03927 4.79997 8.03927 4.79997ZM 13.1373 2.39998C 13.1373 2.79998 13.1373 3.19998 12.9413 3.39998C 12.9413 3.79998 12.7452 3.99997 12.5491 4.19997C 12.353 4.39997 12.1569 4.59997 11.7648 4.79997C 11.5687 4.99997 11.1765 4.99997 10.7844 4.99997C 10.3922 4.99997 10.1961 4.99997 9.80397 4.79997C 9.60789 4.59997 9.41182 4.59997 9.21574 4.39997C 9.01966 4.19997 8.82358 3.99997 8.82358 3.59998C 8.82358 3.19998 8.6275 2.99998 8.6275 2.59998C 8.6275 2.19998 8.6275 1.79999 8.82358 1.59999C 8.82358 1.19999 9.01966 0.999993 9.21574 0.799995C 9.41182 0.599996 9.60791 0.399997 10.0001 0.199998C 10.1961 -3.87428e-07 10.5883 7.62934e-07 10.9805 7.62934e-07C 11.3726 7.62934e-07 11.5687 -3.87428e-07 11.9609 0.199998C 12.1569 0.399997 12.353 0.399997 12.5491 0.599995C 12.7452 0.799994 12.9413 0.999994 12.9413 1.39999C 12.9413 1.79999 13.1373 1.99999 13.1373 2.39998ZM 12.353 2.59998C 12.353 2.39998 12.353 1.99999 12.353 1.79999C 12.353 1.59999 12.1569 1.39999 12.1569 1.19999C 11.9609 0.999993 11.9608 0.799995 11.7648 0.799995C 11.5687 0.799995 11.3726 0.599995 10.9805 0.599995C 10.7844 0.599995 10.3922 0.599996 10.1961 0.799995C 10.0001 0.999993 9.80397 0.999993 9.80397 1.19999C 9.60789 1.39999 9.41182 1.59999 9.41182 1.79999C 9.41182 1.99999 9.41182 2.19998 9.41182 2.59998C 9.41182 2.79998 9.41182 3.19998 9.41182 3.39998C 9.41182 3.59998 9.6079 3.79998 9.6079 3.99997C 9.80398 4.19997 9.80399 4.39997 10.0001 4.39997C 10.1961 4.39997 10.3922 4.59997 10.7844 4.59997C 10.9805 4.59997 11.3726 4.59997 11.5687 4.39997C 11.7648 4.19997 11.9609 4.19997 11.9609 3.99997C 12.1569 3.79998 12.1569 3.59998 12.1569 3.39998C 12.353 2.99998 12.353 2.79998 12.353 2.59998ZM 17.6472 3.59998C 17.6472 3.79997 17.6472 3.99997 17.6472 3.99997C 17.6472 4.19997 17.6472 4.19997 17.4511 4.39997C 17.4511 4.59997 17.255 4.59997 17.255 4.59997C 17.0589 4.59997 17.0589 4.79997 16.8629 4.79997C 16.6668 4.79997 16.6668 4.79997 16.4707 4.99997C 16.2746 4.99997 16.0785 4.99997 16.0785 4.99997L 14.706 4.99997L 14.5099 4.99997L 14.5099 4.79997L 14.5099 0.399998L 14.5099 0.199998L 14.706 0.199998L 15.8825 0.199998C 16.0785 0.199998 16.4707 0.199998 16.6668 0.199998C 16.8628 0.199998 17.0589 0.399998 17.0589 0.399998C 17.255 0.599996 17.255 0.599996 17.255 0.799995C 17.255 0.999993 17.255 1.19999 17.255 1.39999C 17.255 1.59999 17.255 1.59999 17.255 1.79999C 17.255 1.79999 17.255 1.79999 17.0589 1.99999L 16.8629 2.19999L 16.6668 2.39998C 16.8628 2.39998 16.8628 2.39998 17.0589 2.59998C 17.255 2.59998 17.255 2.79998 17.4511 2.79998C 17.4511 2.99998 17.6472 2.99998 17.6472 3.19998C 17.6472 3.19998 17.6472 3.39998 17.6472 3.59998ZM 16.6668 1.39999C 16.6668 1.19999 16.6668 1.19999 16.6668 0.999994C 16.6668 0.999994 16.6668 0.799995 16.4707 0.799995L 16.2746 0.599995C 16.0785 0.599995 16.0785 0.599995 15.8825 0.599995L 15.2942 0.599995L 15.2942 2.19999L 16.0785 2.19999C 16.2746 2.19999 16.4707 2.19999 16.4707 2.19999C 16.6668 2.19999 16.6668 1.99999 16.6668 1.99999L 16.8629 1.79999C 16.6668 1.59999 16.6668 1.39999 16.6668 1.39999ZM 16.8629 3.59998C 16.8629 3.39998 16.8629 3.39998 16.8629 3.19998C 16.8629 2.99998 16.6668 2.99998 16.6668 2.99998C 16.6668 2.99998 16.4707 2.79998 16.2746 2.79998C 16.0785 2.79998 15.8824 2.79998 15.6864 2.79998L 14.9021 2.79998L 14.9021 4.59997L 15.8825 4.59997C 16.0785 4.59997 16.0785 4.59997 16.2746 4.59997C 16.4707 4.59997 16.4707 4.59997 16.4707 4.39997L 16.6668 4.19997C 16.8628 3.99997 16.8629 3.79997 16.8629 3.59998ZM 22.5491 4.79997C 22.5491 4.79997 22.5491 4.99997 22.5491 4.79997C 22.5491 4.99997 22.5491 4.99997 22.5491 4.99997C 22.5491 4.99997 22.5492 4.99997 22.3531 4.99997L 22.157 4.99997L 21.9609 4.99997C 21.9609 4.99997 21.9609 4.99997 21.7648 4.99997L 21.3727 3.79997L 19.4119 3.79997L 19.0197 4.99997C 19.0197 4.99997 19.0197 4.99997 18.8236 4.99997L 18.6276 4.99997L 18.4315 4.99997C 18.4315 4.99997 18.4315 4.99997 18.4315 4.79997L 20.0001 0.199998C 20.0001 0.199998 20.0001 0.199998 20.1962 0.199998L 20.3923 0.199998L 20.5884 0.199998C 20.5884 0.199998 20.5884 0.199998 20.7844 0.199998L 22.5491 4.79997ZM 20.3923 0.799995L 19.608 3.19998L 21.1766 3.19998L 20.3923 0.799995ZM 26.0786 4.79997C 26.0786 4.99997 26.0786 4.99997 26.0786 4.99997L 23.9217 4.99997L 23.7256 4.99997L 23.7256 4.79997L 23.7256 0.199998C 23.7256 0.199998 23.7256 0.199998 23.9217 0.199998C 23.9217 0.199998 23.9217 0.199998 24.1178 0.199998L 24.3139 0.199998C 24.3139 0.199998 24.3139 0.199998 24.5099 0.199998L 24.5099 4.59997L 26.2747 4.59997C 26.0786 4.59997 26.0786 4.59997 26.0786 4.79997C 26.0786 4.59997 26.0786 4.79997 26.0786 4.79997Z"/>
</defs>
</svg>
