<svg width="78" height="38" viewBox="0 0 78 38" version="1.1" xmlns="http://www.w3.org/2000/svg" xmlns:xlink="http://www.w3.org/1999/xlink">
<title>Group</title>
<desc>Created using Figma</desc>
<g id="Canvas" transform="translate(-22058 -4016)">
<g id="Group">
<g id="Vector">
<use xlink:href="#path0_fill" transform="translate(22058 4016.72)" fill="#0F1B46"/>
</g>
<g id="Vector">
<use xlink:href="#path1_stroke" transform="translate(22059 4017.78)" fill="#FFFFFF"/>
</g>
<g id="Vector">
<use xlink:href="#path2_fill" transform="translate(22107.6 4027.46)" fill="#F58220"/>
</g>
<g id="Vector">
<use xlink:href="#path2_fill" transform="translate(22107.6 4028.52)" fill="#A6CE39"/>
</g>
<g id="Vector">
<use xlink:href="#path3_fill" transform="translate(22107.6 4029.36)" fill="#0095DA"/>
</g>
<g id="Vector">
<use xlink:href="#path4_fill" transform="translate(22093 4027.46)" fill="#FFFFFF"/>
</g>
<g id="Vector">
<use xlink:href="#path5_fill" transform="translate(22103.4 4027.46)" fill="#FFFFFF"/>
</g>
<g id="Vector">
<use xlink:href="#path6_fill" transform="translate(22107.6 4027.25)" fill="#FFFFFF"/>
</g>
<g id="Vector">
<use xlink:href="#path7_fill" transform="translate(22120.6 4027.46)" fill="#FFFFFF"/>
</g>
<g id="Vector">
<use xlink:href="#path8_fill" transform="translate(22061.8 4020.94)" fill="#F58220"/>
</g>
<g id="Vector">
<use xlink:href="#path9_fill" transform="translate(22073.1 4026.62)" fill="#0095DA"/>
</g>
<g id="Vector">
<use xlink:href="#path10_fill" transform="translate(22066.8 4032.28)" fill="#A6CE39"/>
</g>
<g id="Vector">
<use xlink:href="#path11_fill" transform="translate(22075.6 4033.57)" fill="#F58220"/>
</g>
<g id="Vector">
<use xlink:href="#path12_fill" transform="translate(22126.7 4023.46)" fill="#FFFFFF"/>
</g>
</g>
</g>
<defs>
<path id="path0_fill" fill-rule="evenodd" d="M 3.44389 0L 6.68521 0L 71.3089 0L 74.5502 0C 76.576 0 77.9941 1.68478 77.9941 3.58017L 77.9941 33.6957C 77.9941 35.8017 76.3734 37.2759 74.5502 37.2759L 71.3089 37.2759L 6.88779 37.2759L 3.44389 37.2759C 1.62066 37.2759 0 35.8017 0 33.6957L 0 3.58017C 0 1.68478 1.62066 0 3.44389 0Z"/>
<path id="path1_stroke" d="M 5.84769e-15 2.52718L -0.09395 2.52718L 5.84769e-15 2.52718ZM 2.63357 0.09395L 73.5373 0.09395L 73.5373 -0.09395L 2.63357 -0.09395L 2.63357 0.09395ZM 73.5373 0.09395C 74.91 0.09395 76.0769 1.11117 76.0769 2.52718L 76.2648 2.52718C 76.2648 0.994812 75.0007 -0.09395 73.5373 -0.09395L 73.5373 0.09395ZM 76.0769 2.52718L 76.0769 32.6427L 76.2648 32.6427L 76.2648 2.52718L 76.0769 2.52718ZM 76.0769 32.6427C 76.0769 34.0587 74.91 35.0759 73.5373 35.0759L 73.5373 35.2638C 75.0007 35.2638 76.2648 34.1751 76.2648 32.6427L 76.0769 32.6427ZM 73.5373 35.0759L 2.63357 35.0759L 2.63357 35.2638L 73.5373 35.2638L 73.5373 35.0759ZM 2.63357 35.0759C 1.26086 35.0759 0.09395 34.0587 0.09395 32.6427L -0.09395 32.6427C -0.09395 34.1751 1.17013 35.2638 2.63357 35.2638L 2.63357 35.0759ZM 0.09395 32.6427L 0.09395 2.52718L -0.09395 2.52718L -0.09395 32.6427L 0.09395 32.6427ZM 0.09395 2.52718C 0.09395 1.31682 1.26602 0.09395 2.63357 0.09395L 2.63357 -0.09395C 1.16496 -0.09395 -0.09395 1.21035 -0.09395 2.52718L 0.09395 2.52718Z"/>
<path id="path2_fill" d="M 3.24131 0L 0 0L 0 0.421197L 3.24131 0.421197L 3.24131 0Z"/>
<path id="path3_fill" d="M 3.24131 0L 0 0L 0 0.421196L 3.24131 0.421196L 3.24131 0Z"/>
<path id="path4_fill" fill-rule="evenodd" d="M -1.54558e-06 2.52718L 3.44389 2.52718L 3.44389 14.5313L 6.07746 14.5313L 6.07746 2.52718L 9.31877 2.52718L 9.31877 -2.00842e-07L -1.54558e-06 -2.00842e-07L -1.54558e-06 2.52718Z"/>
<path id="path5_fill" d="M 2.63357 0L 0 0L 0 14.5313L 2.63357 14.5313L 2.63357 0Z"/>
<path id="path6_fill" fill-rule="evenodd" d="M 3.4439 2.73778L 6.88779 2.73778C 8.10328 2.73778 8.91361 3.36957 8.91361 4.42256C 8.91361 6.94974 5.6723 5.89675 3.4439 6.10734C 1.62066 6.31794 0 7.79213 0 9.89811L 0 14.7419L 2.43099 14.7419L 2.43099 10.3193C 2.43099 6.73914 11.3446 11.5829 11.3446 4.63316L 11.3446 4.21196C 11.3446 1.89538 9.52136 0 7.49554 0L 3.24131 0L 3.24131 2.73778L 3.4439 2.73778Z"/>
<path id="path7_fill" fill-rule="evenodd" d="M -7.72789e-07 4.00136L -7.72789e-07 4.21196C -7.72789e-07 11.5829 9.72394 6.31794 9.72394 9.89811L 9.72394 10.5299C 9.72394 11.3723 8.91361 12.0041 8.10328 12.0041L 0.607748 12.0041L 0.607748 14.5313L 8.30586 14.5313C 10.3317 14.5313 12.1549 12.6359 12.1549 10.5299L 12.1549 9.68751C 12.1549 7.37093 10.3317 5.89675 8.10328 5.89675C 5.6723 5.68615 2.02582 6.73914 2.02582 4.21196C 2.02582 3.15897 2.83615 2.52718 3.84906 2.52718L 10.9394 2.52718L 10.9394 -2.00842e-07L 3.64648 -2.00842e-07C 1.62066 -2.00842e-07 -7.72789e-07 1.47419 -7.72789e-07 4.00136Z"/>
<path id="path8_fill" fill-rule="evenodd" d="M 14.0608 0C 15.2763 0 16.2892 0.210598 17.0996 2.52718C 17.9099 4.63316 17.9099 6.94974 18.1125 8.00273C 18.3151 8.84512 18.5177 9.68751 19.7331 9.89811C 20.9486 10.1087 22.7719 10.1087 25.608 10.1087C 28.8493 10.1087 30.2674 11.7935 30.2674 13.0571C 30.2674 14.5313 29.2545 15.1631 26.4183 16.2161C 23.5822 17.269 21.9615 18.9538 22.5693 21.481C 23.177 24.0082 23.9874 25.693 23.9874 27.5884C 23.9874 29.4837 22.5693 29.9049 21.9615 29.9049C 21.3538 29.9049 20.1383 29.9049 17.7073 27.3778C 15.0738 25.0612 14.8712 24.64 13.4531 24.64C 12.035 24.64 10.8195 25.4824 8.79371 27.1672C 6.97047 28.8519 5.95756 29.6943 4.33691 28.8519C 2.71625 28.0095 3.324 26.1142 3.72916 25.0612C 3.93174 24.0082 5.34982 21.481 5.95756 20.0068C 6.56531 18.7432 6.97047 18.322 5.5524 17.269C 4.33691 16.2161 1.50076 14.7419 0.893014 13.0571C -0.322478 11.5829 -0.727642 9.47691 2.51367 8.42392C 4.74207 7.58153 6.76789 8.00273 8.59113 7.79213C 10.2118 7.79213 10.4144 7.16034 10.4144 5.89675C 10.617 4.63316 10.617 2.52718 11.2247 1.68478C 11.8324 0.842392 12.4402 0 14.0608 0ZM 13.0479 1.26359C 12.035 1.89538 11.8324 3.36957 11.6299 5.68615C 11.2247 8.00273 11.0221 8.21333 10.0092 8.63452C 8.79371 9.05572 6.97047 8.84512 4.53949 9.05572C 2.10851 9.26632 0.893014 10.1087 0.893014 11.3723C 0.893014 12.4253 1.29818 13.0571 2.31109 14.1101C 3.324 15.1631 3.93174 14.9525 5.95756 16.6372C 7.98339 18.322 7.37564 19.1644 6.56531 20.8492C 5.5524 22.7446 4.74207 24.8506 4.33691 26.1142C 3.93174 27.3778 4.13433 28.2201 5.14724 28.2201C 6.16015 28.2201 6.16015 28.0095 7.37564 27.1672C 8.59113 26.3248 10.0092 24.64 11.6299 24.0082C 13.0479 23.3764 13.8583 23.587 14.8712 24.2188C 15.8841 24.64 17.5047 26.746 19.1254 27.7989C 20.7461 28.8519 21.759 29.2731 22.5693 28.6413C 23.3796 28.0095 22.7719 26.1142 21.9615 23.7976C 21.3538 21.481 21.1512 20.8492 21.3538 18.9538C 21.5564 17.0584 23.9874 16.0055 25.608 15.3737C 27.2287 14.7419 29.0519 14.3207 29.0519 12.8465C 29.0519 11.5829 28.4442 11.3723 27.0261 10.9511C 25.8106 10.7405 22.9745 10.7405 20.5435 10.7405C 18.1125 10.7405 17.0996 9.68751 16.897 7.58153C 16.4918 5.26495 16.2892 3.36957 15.8841 2.31658C 15.4789 1.05299 14.8712 0.631794 14.2634 0.631794C 14.2634 0.631794 14.0608 0.631794 13.0479 1.26359Z"/>
<path id="path9_fill" fill-rule="evenodd" d="M 3.53614 -4.01684e-07C 4.54905 -4.01684e-07 5.15679 0.842393 5.15679 1.26359C 5.15679 1.68479 4.95421 1.68478 4.54905 1.47419C 4.14388 1.26359 3.33355 1.26359 2.52323 1.47419C 1.51032 1.89538 1.30773 2.73777 1.30773 3.15897C 1.30773 3.58017 1.91548 4.00136 2.92839 4.00136C 4.14388 4.00136 4.34646 3.58017 4.34646 3.36957C 4.34646 3.15897 3.9413 2.94837 3.33355 2.94837C 2.92839 2.94837 2.52323 3.15897 2.32064 3.15897C 1.91548 3.36957 1.7129 3.15897 1.7129 2.73777C 1.7129 2.31658 2.32064 1.68478 3.33355 1.68478C 4.34646 1.68478 5.35937 2.10598 5.35937 3.58017C 5.35937 5.05435 4.54905 5.47555 2.92839 5.47555C 1.10515 5.68615 0.497406 5.05435 0.0922417 3.36957C -0.312922 1.89538 0.699987 1.05299 1.51032 0.631794C 2.32064 0.210598 3.13097 -4.01684e-07 3.53614 -4.01684e-07Z"/>
<path id="path10_fill" fill-rule="evenodd" d="M 20.1354 0.665038C 20.1354 0.243842 19.7303 0.0332449 19.3251 0.0332449C 18.9199 0.0332449 17.5018 0.243843 13.8554 0.875637C 10.2089 1.29683 7.57533 1.29683 4.94176 1.08624C 2.51078 0.875637 0.89012 0.243843 0.484956 0.0332449C -0.12279 -0.177353 -0.12279 0.665039 0.282374 1.08624C 0.282374 1.50743 1.29528 1.92863 3.11852 2.34982C 4.73918 2.56042 5.54951 2.56042 8.58824 2.77102C 8.58824 3.40281 8.58824 4.03461 8.38566 4.877C 8.18307 5.92999 7.57533 7.19358 6.56242 8.45717C 5.54951 9.93135 4.33401 10.9843 1.70045 13.5115L 2.51078 14.5645C 2.51078 14.5645 3.52369 13.5115 5.54951 11.6161C 7.57533 9.51016 7.77791 9.08896 9.19598 7.40418C 9.39857 7.82537 10.0063 8.87836 11.2218 11.1949C 12.6399 13.3009 14.4631 15.6175 14.4631 15.6175C 14.4631 15.6175 14.8683 15.1963 15.476 14.7751C 14.6657 13.7221 12.2347 10.142 11.2218 8.66777C 10.2089 7.19358 10.2089 5.92999 10.0063 4.877C 10.0063 4.24521 10.0063 3.19221 10.0063 2.77102C 14.6657 2.77102 18.5148 1.92863 19.1225 1.71803C 20.1354 1.29683 20.1354 1.29683 20.1354 0.665038Z"/>
<path id="path11_fill" fill-rule="evenodd" d="M -3.86395e-07 0.631795L 0.607746 0.421196L 0.810329 0L 1.01291 0.421196L 1.41807 0.631795L 1.01291 1.05299L 1.21549 1.47419L 0.810329 1.26359L 0.202582 1.68478L 0.405163 1.05299L -3.86395e-07 0.631795Z"/>
<path id="path12_fill" fill-rule="evenodd" d="M 1.01291 2.94837L 1.01291 0.421196L 3.09116e-06 0.421196L 3.09116e-06 1.00421e-07L 2.2284 1.00421e-07L 2.2284 0.421196L 1.21549 0.421196L 1.21549 2.94837L 1.01291 2.94837ZM 2.63357 2.94837L 2.63357 1.00421e-07L 3.24131 1.00421e-07L 3.84906 2.10598C 3.84906 2.31658 4.05164 2.52718 4.05164 2.52718C 4.05164 2.31658 4.05164 2.31658 4.25422 2.10598L 4.86197 1.00421e-07L 5.26713 1.00421e-07L 5.26713 2.94837L 4.86197 2.94837L 4.86197 0.421196L 4.05164 2.94837L 3.64648 2.94837L 2.83615 0.421196L 2.83615 2.94837L 2.63357 2.94837Z"/>
</defs>
</svg>
